<svg xmlns="http://www.w3.org/2000/svg" xmlns:xlink="http://www.w3.org/1999/xlink" width="300" zoomAndPan="magnify" viewBox="0 0 224.87999 149.999998" height="200" preserveAspectRatio="xMidYMid meet" version="1.0"><defs><clipPath id="b7b50532ca"><path d="M 0 6.117188 L 224.761719 6.117188 L 224.761719 149.960938 L 0 149.960938 Z M 0 6.117188 " clip-rule="nonzero"/></clipPath><clipPath id="0eeb2d6168"><path d="M 0 75 L 224.761719 75 L 224.761719 149.960938 L 0 149.960938 Z M 0 75 " clip-rule="nonzero"/></clipPath><clipPath id="f60365353a"><path d="M 0 0 L 224.761719 0 L 224.761719 74.960938 L 0 74.960938 Z M 0 0 " clip-rule="nonzero"/></clipPath><clipPath id="5260a3d110"><rect x="0" width="225" y="0" height="75"/></clipPath></defs><g clip-path="url(#b7b50532ca)"><path fill="#163a6a" d="M 55.914062 6.144531 L 4.621094 58.019531 C 2.976562 58.929688 0.789062 58.722656 -1.941406 57.40625 C -13.378906 48.664062 -20.425781 43.722656 -23.082031 42.589844 C -26.949219 40.789062 -30.417969 40.058594 -33.492188 40.402344 L -70.101562 65.09375 C -72.160156 65.878906 -74.519531 66.371094 -77.175781 66.570312 C -86.90625 65.921875 -93.925781 65.957031 -98.238281 66.679688 L -128.875 78.761719 C -129.679688 78.828125 -130.414062 78.828125 -131.066406 78.769531 C -133.835938 78.542969 -136.542969 77.410156 -139.199219 75.367188 L -173.941406 44.070312 L -206.707031 71.703125 C -211.375 75.066406 -216.605469 76.5625 -222.398438 76.191406 L -251.652344 64.515625 L -279.332031 62.195312 L -304.425781 50.644531 L -331.660156 62.160156 C -334.824219 63.222656 -337.664062 63.4375 -340.175781 62.808594 L -396.296875 20.882812 C -403.265625 16.066406 -410.402344 13.234375 -417.707031 12.378906 L -461.082031 40.4375 C -486.3125 43.988281 -513.585938 55.011719 -542.898438 73.507812 C -547.644531 75.503906 -552.472656 76.773438 -557.378906 77.3125 C -578.371094 75.355469 -591.386719 75.257812 -596.429688 77.015625 L -642.734375 101.121094 L -702.097656 64.433594 C -712.828125 59.421875 -722.671875 58.199219 -731.640625 60.769531 C -736.125 62.101562 -741.191406 64.695312 -746.84375 68.550781 L -862.207031 152.660156 L 545.335938 148.847656 C 531.164062 136.839844 521.355469 129.3125 515.917969 126.261719 C 426.820312 76.515625 369.484375 47.105469 343.910156 38.027344 C 335.402344 35.386719 326.828125 35.230469 318.191406 37.550781 L 254.910156 63.3125 C 251.296875 63.554688 247.277344 62.8125 242.859375 61.089844 L 214.132812 46.742188 C 211.433594 46.066406 203.550781 46.796875 190.480469 48.9375 L 171.179688 42.71875 L 146.058594 59.347656 C 142.953125 61.121094 139.671875 61.890625 136.210938 61.660156 L 70.945312 12.050781 C 66.363281 8.605469 61.351562 6.636719 55.914062 6.144531 " fill-opacity="0.996" fill-rule="nonzero"/></g><g clip-path="url(#0eeb2d6168)"><g transform="matrix(1, 0, 0, 1, 0, 75)"><g clip-path="url(#5260a3d110)"><g clip-path="url(#f60365353a)"><path fill="#0d1f37" d="M 359.875 0.0546875 L 360.289062 0.0546875 C 372.304688 0.0625 382.363281 1.40625 390.464844 4.097656 C 396.917969 5.355469 412.40625 10.820312 436.925781 20.488281 C 515.707031 54.878906 581.3125 85.75 633.734375 113.097656 L -475.0625 104.710938 C -458.167969 103.019531 -440.636719 100.027344 -422.464844 95.726562 C -409.195312 93.238281 -385.484375 85.828125 -351.332031 73.496094 L -282.601562 23.90625 C -271.804688 17.191406 -256.578125 12.210938 -236.925781 8.960938 C -221.601562 7.382812 -210.273438 7.925781 -202.941406 10.59375 C -163.699219 30.507812 -139.1875 42.355469 -129.410156 46.148438 C -115.234375 52.5 -102.351562 55.828125 -90.765625 56.128906 C -83.519531 55.902344 -78.136719 55.1875 -74.621094 53.984375 C -49.851562 43.136719 -31.484375 36.726562 -19.527344 34.757812 C -11.367188 33.390625 -2.648438 32.742188 6.625 32.8125 C 8.609375 32.621094 22.808594 33.523438 49.21875 35.511719 C 55.003906 35.617188 59.511719 35.246094 62.742188 34.398438 C 92.046875 17.851562 112.722656 8.65625 124.769531 6.8125 C 137.800781 5.167969 148.632812 5.03125 157.261719 6.40625 C 164.191406 6.890625 186.050781 12.476562 222.835938 23.171875 C 229.496094 24.648438 234.347656 25.3125 237.390625 25.164062 C 282.90625 13.261719 310.769531 6.542969 320.984375 5.007812 C 338 1.707031 350.964844 0.0546875 359.875 0.0546875 " fill-opacity="1" fill-rule="nonzero"/></g></g></g></g></svg>